<svg viewBox="0 0 120 120" xmlns="http://www.w3.org/2000/svg">
  <!-- Koala body -->
  <circle cx="60" cy="65" r="25" fill="#D4D4D4" stroke="#9CA3AF" stroke-width="2"/>
  
  <!-- Koala ears -->
  <circle cx="45" cy="45" r="12" fill="#D4D4D4" stroke="#9CA3AF" stroke-width="2"/>
  <circle cx="75" cy="45" r="12" fill="#D4D4D4" stroke="#9CA3AF" stroke-width="2"/>
  <circle cx="45" cy="45" r="6" fill="#9CA3AF"/>
  <circle cx="75" cy="45" r="6" fill="#9CA3AF"/>
  
  <!-- Koala eyes -->
  <circle cx="53" cy="60" r="4" fill="#1F2937"/>
  <circle cx="67" cy="60" r="4" fill="#1F2937"/>
  <circle cx="54" cy="59" r="1.5" fill="#FFFFFF"/>
  <circle cx="68" cy="59" r="1.5" fill="#FFFFFF"/>
  
  <!-- Koala nose -->
  <ellipse cx="60" cy="68" rx="3" ry="2" fill="#1F2937"/>
  
  <!-- Koala mouth -->
  <path d="M 60 72 Q 55 75 50 72" stroke="#1F2937" stroke-width="2" fill="none"/>
  <path d="M 60 72 Q 65 75 70 72" stroke="#1F2937" stroke-width="2" fill="none"/>
  
  <!-- Cheek blush -->
  <circle cx="45" cy="68" r="3" fill="#F87171" opacity="0.6"/>
  <circle cx="75" cy="68" r="3" fill="#F87171" opacity="0.6"/>
  
  <!-- Airplane -->
  <g transform="translate(30, 85)">
    <!-- Airplane body -->
    <path d="M 10 10 L 50 10 L 55 15 L 50 20 L 10 20 Z" fill="#10B981" stroke="#059669" stroke-width="1"/>
    
    <!-- Airplane wings -->
    <path d="M 20 5 L 35 5 L 30 15 L 15 15 Z" fill="#10B981" stroke="#059669" stroke-width="1"/>
    <path d="M 20 25 L 35 25 L 30 15 L 15 15 Z" fill="#10B981" stroke="#059669" stroke-width="1"/>
    
    <!-- Airplane tail -->
    <path d="M 10 8 L 5 5 L 10 15 L 5 25 L 10 22 Z" fill="#10B981" stroke="#059669" stroke-width="1"/>
    
    <!-- Propeller -->
    <circle cx="55" cy="15" r="2" fill="#1F2937"/>
    <line x1="55" y1="10" x2="55" y2="20" stroke="#EF4444" stroke-width="2"/>
    <line x1="50" y1="15" x2="60" y2="15" stroke="#EF4444" stroke-width="2"/>
    
    <!-- Windows -->
    <circle cx="35" cy="15" r="2" fill="#3B82F6" opacity="0.7"/>
    <circle cx="25" cy="15" r="2" fill="#3B82F6" opacity="0.7"/>
  </g>
</svg>